<?xml version="1.0" encoding="UTF-8"?> <svg xmlns="http://www.w3.org/2000/svg" width="163" height="162" viewBox="0 0 163 162" fill="none"><g clip-path="url(#clip0_173_252)"><path d="M102.885 17.8972L7.30292 65.4512L54.4388 161.881L150.021 114.327L102.885 17.8972Z" fill="#EB6303"></path><path d="M102.885 17.8972L7.30292 65.4511L54.4388 161.881L150.021 114.327L102.885 17.8972Z" fill="#EB6303"></path><path d="M36.9949 66.9479H29.5412V91.1298H36.9949C40.4777 91.3302 43.9045 90.179 46.5729 87.9121C47.7523 86.7772 48.6752 85.399 49.2789 83.8717C49.8825 82.3443 50.1526 80.7035 50.0707 79.0613C50.1558 77.4154 49.8873 75.7703 49.2836 74.2388C48.6799 72.7073 47.7552 71.3255 46.5729 70.1881C43.9181 67.8938 40.4845 66.728 36.9949 66.9362M36.9949 62.3904C39.1091 62.3507 41.2198 62.5801 43.2771 63.073C44.9944 63.5262 46.6231 64.2696 48.0942 65.2718C50.2803 66.7428 52.0581 68.7525 53.2592 71.1105C54.4702 73.5612 55.1006 76.2621 55.1006 79.0004C55.1006 81.7387 54.4702 84.4396 53.2592 86.8902C52.0721 89.2571 50.2993 91.2746 48.1126 92.7475C46.6523 93.7691 45.0201 94.5141 43.2955 94.9463C41.2378 95.4371 39.1273 95.6664 37.0132 95.6289H24.871V62.3846L36.9949 62.3904Z" fill="white"></path><path d="M63.8811 79.0691C63.8745 80.7301 64.1949 82.3758 64.8237 83.9109C65.4525 85.446 66.3772 86.8398 67.5441 88.0115C68.6945 89.1908 70.072 90.1199 71.5918 90.7418C74.7053 92.0096 78.1849 92.0096 81.2984 90.7418C82.8226 90.1078 84.2053 89.1718 85.3645 87.9891C87.1206 86.2295 88.3178 83.9824 88.8037 81.5339C89.2896 79.0855 89.0422 76.5466 88.093 74.2405C87.443 72.6846 86.4974 71.2721 85.3094 70.0828C84.1652 68.8813 82.7871 67.9315 81.2617 67.2931C79.7338 66.6578 78.0972 66.3315 76.4447 66.3326C74.8087 66.3332 73.1894 66.6647 71.6827 67.3077C70.1436 67.9628 68.7395 68.9027 67.5431 70.0789C66.3787 71.236 65.4582 72.6188 64.8369 74.144C64.2138 75.6997 63.8967 77.3629 63.9033 79.0408M58.8852 78.8741C58.8836 76.6517 59.3377 74.4529 60.219 72.4161C61.1112 70.3269 62.4131 68.4413 64.0463 66.8728C65.6869 65.2769 67.622 64.0213 69.7419 63.1773C71.8688 62.3221 74.1377 61.8836 76.4273 61.8853C78.7532 61.8744 81.0596 62.3133 83.2218 63.1783C86.4309 64.4204 89.1873 66.622 91.1219 69.4883C93.0565 72.3546 94.077 75.7488 94.0466 79.2163C94.0451 81.4595 93.5903 83.6788 92.71 85.7386C91.8335 87.8221 90.5518 89.707 88.9406 91.2819C85.5789 94.5344 81.0896 96.3314 76.4321 96.289C74.1249 96.2901 71.8384 95.8514 69.6927 94.996C67.5899 94.1398 65.669 92.8854 64.0338 91.3005C62.3837 89.7073 61.0738 87.7906 60.1846 85.6681C59.2954 83.5456 58.8457 81.2621 58.863 78.9579" fill="white"></path><path d="M98.1659 95.662V62.4031H103.276V77.3695L118.22 62.4031H124.648L109.1 77.9975L127.657 95.662H120.514L103.276 79.2173V95.662H98.1659Z" fill="white"></path><path d="M143.055 62.3105H148.239V75.8913C148.947 74.7945 149.925 73.9015 151.077 73.2996C152.292 72.6152 153.66 72.2588 155.051 72.265C159.007 72.265 163 74.8149 163 82.2059V95.6981H157.853V82.7647C157.853 79.4757 156.37 76.9259 153.202 76.9259C152.184 76.938 151.193 77.2531 150.352 77.8317C149.511 78.4102 148.859 79.2264 148.476 80.1778C148.301 80.7392 148.221 81.3262 148.239 81.9144V95.6289H143.055V62.3105Z" fill="#EB6303"></path><path d="M6.7578 45.8657C6.2678 45.5803 5.71196 45.4301 5.14615 45.4301C4.58035 45.4301 4.02451 45.5803 3.53451 45.8657C3.18208 46.0312 2.85627 46.2491 2.568 46.5122C2.28424 46.7744 2.0432 47.0801 1.85376 47.4181C1.68764 47.7518 1.59406 48.1175 1.57927 48.4907C1.57192 48.9056 1.65957 49.3167 1.83539 49.692C1.9456 49.9602 2.11005 50.2022 2.31824 50.4027C2.52643 50.6032 2.77378 50.7576 3.04449 50.8562C3.58204 51.0302 4.14759 51.0991 4.71074 51.059C5.37342 51.0152 6.03264 50.9285 6.68434 50.7996C7.33609 50.675 8.00053 50.6314 8.66278 50.67C9.30131 50.7045 9.92543 50.8746 10.4943 51.1692C11.1375 51.5657 11.6438 52.1527 11.9441 52.8502C12.233 53.4218 12.3778 54.0565 12.3655 54.698C12.3498 55.3006 12.2061 55.8928 11.9441 56.4346C11.6811 56.9831 11.3282 57.4829 10.9002 57.9128C10.4744 58.333 9.985 58.6822 9.45048 58.9474C8.65395 59.36 7.78036 59.5992 6.88634 59.6494C5.97174 59.695 5.06188 59.4909 4.25262 59.0586L5.07705 57.5433C5.6245 57.9013 6.2568 58.1053 6.90857 58.1342C7.62039 58.1624 8.32722 58.0031 8.9595 57.672C9.29712 57.4907 9.6108 57.2673 9.89314 57.007C10.1758 56.7391 10.4054 56.4195 10.5697 56.0651C10.7404 55.7194 10.8391 55.3421 10.8596 54.9564C10.8894 54.5514 10.8003 54.1465 10.6035 53.7922C10.4241 53.369 10.1244 53.009 9.74236 52.7576C9.39461 52.5354 8.99862 52.4015 8.58836 52.3676C8.13957 52.3033 7.68404 52.3033 7.23525 52.3676L5.77003 52.5704C5.27242 52.6472 4.77103 52.6967 4.26808 52.7186C3.77283 52.7749 3.27182 52.7498 2.7845 52.6445C2.32038 52.5274 1.88831 52.3064 1.52031 51.998C1.06594 51.6164 0.702566 51.1365 0.457157 50.5939C0.170324 50.0221 0.0141133 49.3927 0 48.752C0.000655974 48.1674 0.138782 47.5912 0.403032 47.0709C0.651359 46.5385 1.008 46.0647 1.44976 45.6805C2.45349 44.7278 3.74139 44.1367 5.11281 43.9994C5.91543 43.9427 6.71978 44.0822 7.45755 44.4061L6.7578 45.8657Z" fill="#EB6303"></path><path d="M20.9886 52.7946L19.6152 53.4772L13.6442 41.2273L9.16151 43.4115L8.55261 42.1517L18.8633 37.015L19.4857 38.2718L14.9982 40.5633L20.9886 52.7946Z" fill="#EB6303"></path><path d="M28.827 48.9558L27.4738 49.6208L20.8784 36.0175L22.2315 35.3349L28.827 48.9558Z" fill="#EB6303"></path><path d="M42.4354 39.4731C42.365 39.9473 42.2421 40.4121 42.069 40.8587C41.8758 41.348 41.6155 41.8075 41.2958 42.2238C40.9631 42.6656 40.5889 43.0741 40.1786 43.4436C39.7184 43.8241 39.2141 44.1467 38.6766 44.4041C37.735 44.8868 36.7077 45.1758 35.6544 45.2544C34.6613 45.3314 33.6632 45.1985 32.7239 44.8643C31.7832 44.5409 30.9148 44.0336 30.1685 43.3715C29.3928 42.6406 28.7686 41.7616 28.3321 40.7856C27.8393 39.8207 27.5464 38.7647 27.471 37.6819C27.3969 36.6816 27.5214 35.6765 27.8373 34.7255C28.1466 33.7718 28.6451 32.8916 29.3025 32.1386C30.0148 31.3656 30.868 30.7383 31.8154 30.2908C32.6762 29.8707 33.6084 29.6198 34.5622 29.5517C35.5727 29.466 36.5869 29.6641 37.4926 30.1241L36.7407 31.6023C36.463 31.449 36.1676 31.3311 35.8612 31.2513C35.4995 31.1377 35.1226 31.0815 34.7439 31.0845C34.3509 31.0693 33.9574 31.1004 33.5715 31.1772C33.1786 31.2498 32.7968 31.3741 32.4359 31.5467C31.2983 32.0548 30.3557 32.9229 29.7509 34.0197C29.1462 35.1165 28.912 36.3823 29.0841 37.6253C29.1805 38.4656 29.4157 39.2836 29.7799 40.0455C30.1557 40.7986 30.6506 41.485 31.2452 42.0776C31.8226 42.6374 32.4998 43.082 33.241 43.3881C33.9859 43.6887 34.7837 43.8333 35.5857 43.8132C36.8669 43.7276 38.0983 43.2795 39.1386 42.5202C39.4562 42.2771 39.7451 41.998 39.9998 41.6885C40.2662 41.3595 40.4822 40.992 40.6406 40.5984C40.8144 40.1544 40.9253 39.688 40.9701 39.2128L42.4354 39.4731Z" fill="#EB6303"></path><path d="M38.9917 27.0555L40.3448 26.3905L43.2018 32.3219L50.5279 28.6264L47.6158 22.7691L48.9689 22.0865L55.5624 35.5748L54.2093 36.2573L51.0962 29.8647L43.7701 33.5603L46.8832 39.9353L45.5301 40.6179L38.9917 27.0555Z" fill="#EB6303"></path><path d="M63.4423 31.6754L62.0892 32.3219L56.1162 20.072L51.6287 22.3478L51.0063 21.091L61.3353 15.9513L61.9394 17.2082L57.4703 19.3885L63.4423 31.6754Z" fill="#EB6303"></path><path d="M71.2768 27.7771L69.9237 28.4421L63.3322 14.9538L64.7046 14.2703L71.2768 27.7771Z" fill="#EB6303"></path><path d="M83.478 19.1486L77.9283 7.69241L79.3056 7.0274L85.8991 20.5157L84.1961 21.3659L70.5664 13.8432L76.207 25.391L74.8539 26.0736L68.2584 12.5892L69.9614 11.739L83.478 19.1486Z" fill="#EB6303"></path><path d="M93.9906 2.7595C93.2911 2.51485 92.5497 2.41535 91.8111 2.46698C90.9735 2.51233 90.1553 2.73914 89.4123 3.13198C88.6109 3.51161 87.9039 4.06733 87.343 4.75841C86.8302 5.38194 86.4499 6.10513 86.2257 6.88311C86.0294 7.66684 85.9793 8.48055 86.0778 9.28277C86.2725 10.9674 87.0356 12.5331 88.2389 13.7174C88.811 14.2889 89.4892 14.7409 90.2348 15.0474C90.9867 15.3431 91.7903 15.4814 92.5969 15.454C93.4774 15.4209 94.34 15.1939 95.1243 14.789C95.7833 14.4544 96.3986 14.0385 96.9558 13.5507C97.4786 13.0902 97.9458 12.5692 98.3476 11.9984L96.1333 7.47108L92.9439 9.06046L92.3398 7.80358L96.8824 5.5492L100.124 12.1641C99.5597 13.0007 98.8887 13.7587 98.1282 14.4185C97.3982 15.0584 96.5924 15.6047 95.7293 16.0449C94.7804 16.5255 93.7475 16.8143 92.6887 16.8952C91.6898 16.9659 90.687 16.8332 89.7399 16.5052C88.7996 16.1854 87.9335 15.6761 87.1941 15.0084C86.4198 14.2771 85.7972 13.3978 85.3626 12.4215C84.8745 11.4548 84.5818 10.3998 84.5015 9.31788C84.414 8.35334 84.5124 7.38084 84.7914 6.45407C85.1219 5.50207 85.6319 4.62362 86.2934 3.86719C86.9941 3.09092 87.8407 2.46284 88.784 2.01942C89.7016 1.46088 90.7166 1.08487 91.7744 0.911731C92.7031 0.820124 93.6404 0.933585 94.5212 1.24423L93.9906 2.7595Z" fill="#EB6303"></path></g><defs><clipPath id="clip0_173_252"><rect width="163" height="161" fill="white" transform="translate(0 0.880524)"></rect></clipPath></defs></svg> 